<svg width="24" height="24" viewBox="0 0 24 24" fill="none" xmlns="http://www.w3.org/2000/svg">
<path fill-rule="evenodd" clip-rule="evenodd" d="M8.15294 7.515L7.79301 7.86206L8.48714 8.58191L8.84706 8.23485L11.5 5.67672L11.5 11.4999L11.5 11.9999L12.5 11.9999L12.5 11.4999L12.5 5.67672L15.1529 8.23485L15.5129 8.58191L16.207 7.86206L15.8471 7.515L12.3471 4.14007C12.1534 3.95331 11.8466 3.95331 11.6529 4.14007L8.15294 7.515ZM3.5 13.4999L3.5 13.5364C3.49999 14.4482 3.49998 15.183 3.57768 15.761C3.65836 16.3611 3.83096 16.8663 4.23223 17.2676C4.63351 17.6689 5.13876 17.8415 5.73883 17.9222C6.31681 17.9999 7.05168 17.9999 7.96339 17.9999H7.96342L8 17.9999L16 17.9999H16.0366C16.9483 17.9999 17.6832 17.9999 18.2612 17.9222C18.8612 17.8415 19.3665 17.6689 19.7678 17.2676C20.169 16.8663 20.3416 16.3611 20.4223 15.761C20.5 15.183 20.5 14.4482 20.5 13.5365V13.5365L20.5 13.4999L20.5 12.4999V11.9999L19.5 11.9999V12.4999L19.5 13.4999C19.5 14.4568 19.4989 15.1242 19.4312 15.6278C19.3655 16.117 19.2452 16.376 19.0607 16.5605C18.8762 16.745 18.6171 16.8653 18.1279 16.9311C17.6244 16.9988 16.9569 16.9999 16 16.9999L8 16.9999C7.04306 16.9999 6.37565 16.9988 5.87208 16.9311C5.3829 16.8653 5.12385 16.745 4.93934 16.5605C4.75483 16.376 4.63453 16.117 4.56877 15.6278C4.50106 15.1242 4.5 14.4568 4.5 13.4999L4.5 12.4999L4.5 11.9999L3.5 11.9999L3.5 12.4999L3.5 13.4999Z" fill="#001528"/>
</svg>
